<svg height="512pt" viewBox="0 0 512 512" width="512pt" xmlns="http://www.w3.org/2000/svg"><path d="m129.375 224.59375c-1.449219 0-2.914062-.410156-4.21875-1.261719l-105.058594-68.671875c-2.183594-1.425781-3.5-3.855468-3.5-6.464844 0-2.609374 1.316406-5.042968 3.5-6.46875l105.058594-68.671874c3.570312-2.335938 8.359375-1.332032 10.695312 2.242187 2.332032 3.570313 1.332032 8.359375-2.242187 10.691406l-95.164063 62.203125 95.164063 62.203125c3.574219 2.335938 4.574219 7.125 2.242187 10.695313-1.484374 2.269531-3.957031 3.503906-6.476562 3.503906zm0 0" fill="#464646"/><path d="m37.550781 504.746094c0 4.007812-3.246093 7.253906-7.253906 7.253906h-23.042969c-4.007812 0-7.253906-3.246094-7.253906-7.253906v-486.519532c0-10.066406 8.160156-18.226562 18.226562-18.226562h1.097657c10.066406 0 18.226562 8.160156 18.226562 18.226562zm0 0" fill="#5a5a5a"/><path d="m512 182.972656c0 20.179688-14.921875 37.246094-34.921875 39.9375l-332.859375 44.820313c-12.933594 1.742187-24.4375-8.316407-24.4375-21.367188v-196.335937c0-13.050782 11.503906-23.109375 24.4375-21.367188l332.859375 44.816406c20 2.695313 34.921875 19.761719 34.921875 39.9375zm0 0" fill="#cdcdcd"/><path d="m512 113.414062c0-20.175781-14.921875-37.242187-34.921875-39.9375l-22.320313-3.003906c14.460938 7.394532 24.152344 22.417969 24.152344 39.464844v76.515625c0 17.046875-9.691406 32.066406-24.152344 39.464844l22.320313-3.007813c19.996094-2.691406 34.921875-19.757812 34.921875-39.9375zm0 0" fill="#bebebe"/><path d="m217.835938 38.570312-73.617188-9.910156c-12.933594-1.742187-24.4375 8.316406-24.4375 21.367188v196.335937c0 13.050781 11.503906 23.109375 24.4375 21.367188l73.617188-9.914063zm0 0" fill="#f76937"/><path d="m315.890625 244.613281 98.054687-13.203125v-166.433594l-98.054687-13.203124zm0 0" fill="#f76937"/><path d="m119.78125 303.960938c-7.496094 0-11.65625-2.484376-14.695312-4.300782-2.355469-1.402344-3.535157-2.109375-6.773438-2.109375-3.234375 0-4.417969.703125-6.773438 2.109375-3.035156 1.816406-7.195312 4.300782-14.695312 4.300782s-11.65625-2.484376-14.695312-4.300782c-2.355469-1.402344-3.539063-2.109375-6.773438-2.109375-4.265625 0-7.726562-3.460937-7.726562-7.726562 0-4.269531 3.460937-7.726563 7.726562-7.726563 7.5 0 11.660156 2.484375 14.695312 4.296875 2.355469 1.40625 3.535157 2.113281 6.773438 2.113281 3.234375 0 4.417969-.707031 6.773438-2.113281 3.035156-1.8125 7.195312-4.296875 14.695312-4.296875s11.660156 2.484375 14.695312 4.296875c2.355469 1.40625 3.539063 2.113281 6.773438 2.113281 4.265625 0 7.726562 3.460938 7.726562 7.726563s-3.457031 7.726563-7.726562 7.726563zm0 0" fill="#3567c3"/><g fill="#40c1fa"><path d="m295.390625 325.855469c-7.496094 0-11.65625-2.484375-14.695313-4.296875-2.355468-1.40625-3.535156-2.113282-6.773437-2.113282-3.234375 0-4.417969.707032-6.773437 2.113282-3.035157 1.8125-7.195313 4.296875-14.695313 4.296875s-11.65625-2.484375-14.695313-4.296875c-2.355468-1.40625-3.535156-2.113282-6.769531-2.113282-4.269531 0-7.726562-3.457031-7.726562-7.726562 0-4.265625 3.457031-7.726562 7.726562-7.726562 7.496094 0 11.65625 2.484374 14.695313 4.300781 2.351562 1.40625 3.535156 2.113281 6.769531 2.113281 3.238281 0 4.417969-.707031 6.773437-2.113281 3.039063-1.816407 7.199219-4.300781 14.699219-4.300781 7.496094 0 11.65625 2.484374 14.695313 4.300781 2.355468 1.40625 3.535156 2.113281 6.773437 2.113281 4.265625 0 7.726563 3.457031 7.726563 7.726562-.003906 4.265626-3.460938 7.722657-7.730469 7.722657zm0 0"/><path d="m479.796875 270.136719c-7.496094 0-11.65625-2.484375-14.695313-4.296875-2.355468-1.40625-3.539062-2.113282-6.773437-2.113282-3.238281 0-4.417969.707032-6.773437 2.113282-3.039063 1.8125-7.199219 4.296875-14.699219 4.296875-7.496094 0-11.65625-2.484375-14.695313-4.296875-2.351562-1.40625-3.535156-2.113282-6.769531-2.113282-4.269531 0-7.726563-3.460937-7.726563-7.726562s3.457032-7.726562 7.726563-7.726562c7.496094 0 11.65625 2.484374 14.695313 4.296874 2.355468 1.40625 3.535156 2.113282 6.769531 2.113282 3.238281 0 4.421875-.707032 6.777343-2.113282 3.035157-1.8125 7.195313-4.296874 14.691407-4.296874 7.5 0 11.660156 2.484374 14.699219 4.296874 2.355468 1.40625 3.535156 2.113282 6.773437 2.113282 4.265625 0 7.726563 3.460937 7.726563 7.726562s-3.460938 7.726563-7.726563 7.726563zm0 0"/><path d="m373.308594 36.1875c-7.496094 0-11.65625-2.484375-14.695313-4.296875-2.355469-1.40625-3.539062-2.113281-6.773437-2.113281s-4.417969.707031-6.773438 2.113281c-3.039062 1.8125-7.199218 4.296875-14.695312 4.296875-7.5 0-11.65625-2.484375-14.695313-4.296875-2.355469-1.40625-3.539062-2.113281-6.773437-2.113281-4.265625 0-7.726563-3.457032-7.726563-7.726563 0-4.265625 3.460938-7.726562 7.726563-7.726562 7.5 0 11.65625 2.484375 14.695312 4.300781 2.355469 1.402344 3.539063 2.109375 6.773438 2.109375s4.417968-.703125 6.773437-2.113281c3.035157-1.8125 7.195313-4.296875 14.695313-4.296875s11.65625 2.484375 14.695312 4.296875c2.355469 1.40625 3.539063 2.113281 6.773438 2.113281 4.265625 0 7.726562 3.460937 7.726562 7.726563 0 4.269531-3.457031 7.726562-7.726562 7.726562zm0 0"/></g></svg>